<svg xmlns="http://www.w3.org/2000/svg" width="500" height="500" viewBox="0 0 500 500" fill="currentColor" color="#51a2ff">
  <g fill-rule="evenodd">
    <path d="M 242 106 L 241 107 L 233 107 L 232 108 L 227 108 L 226 109 L 223 109 L 222 110 L 219 110 L 218 111 L 215 111 L 214 112 L 212 112 L 211 113 L 209 113 L 208 114 L 206 114 L 205 115 L 203 115 L 202 116 L 200 116 L 199 117 L 198 117 L 197 118 L 196 118 L 195 119 L 194 119 L 193 120 L 191 120 L 190 121 L 189 121 L 188 122 L 187 122 L 186 123 L 185 123 L 183 125 L 182 125 L 181 126 L 180 126 L 178 128 L 177 128 L 176 129 L 175 129 L 173 131 L 172 131 L 170 133 L 169 133 L 165 137 L 164 137 L 160 141 L 159 141 L 143 157 L 143 158 L 139 162 L 139 163 L 136 166 L 136 167 L 134 169 L 134 170 L 132 172 L 132 173 L 130 175 L 130 176 L 129 177 L 129 178 L 127 180 L 127 181 L 126 182 L 126 183 L 125 184 L 125 185 L 124 186 L 124 187 L 123 188 L 123 189 L 122 190 L 122 191 L 121 192 L 121 194 L 120 195 L 120 196 L 119 197 L 119 198 L 118 199 L 118 201 L 117 202 L 117 204 L 116 205 L 116 207 L 115 208 L 115 211 L 114 212 L 114 214 L 113 215 L 113 218 L 112 219 L 112 223 L 111 224 L 111 228 L 110 229 L 110 235 L 109 236 L 109 251 L 108 252 L 108 255 L 109 256 L 109 269 L 110 270 L 110 276 L 111 277 L 111 281 L 112 282 L 112 287 L 113 288 L 113 290 L 114 291 L 114 294 L 115 295 L 115 297 L 116 298 L 116 300 L 117 301 L 117 303 L 118 304 L 118 305 L 119 306 L 119 308 L 120 309 L 120 310 L 121 311 L 121 313 L 122 314 L 122 317 L 123 318 L 123 321 L 124 322 L 124 342 L 123 343 L 123 347 L 122 348 L 122 350 L 121 351 L 121 353 L 120 354 L 120 355 L 119 356 L 119 358 L 118 359 L 118 360 L 117 361 L 117 362 L 116 363 L 116 364 L 114 366 L 114 367 L 113 368 L 113 369 L 111 371 L 111 372 L 109 374 L 109 375 L 106 378 L 106 379 L 102 383 L 102 384 L 96 390 L 96 391 L 83 404 L 83 405 L 68 420 L 68 421 L 61 428 L 61 429 L 57 433 L 59 431 L 60 431 L 68 423 L 69 423 L 77 415 L 78 415 L 86 407 L 87 407 L 95 399 L 96 399 L 105 390 L 106 390 L 114 382 L 115 382 L 123 374 L 124 374 L 133 365 L 134 365 L 142 357 L 143 357 L 152 348 L 153 348 L 161 340 L 162 340 L 169 333 L 170 333 L 176 327 L 176 326 L 169 319 L 169 318 L 166 315 L 166 314 L 163 311 L 163 310 L 161 308 L 161 307 L 159 305 L 159 304 L 158 303 L 158 302 L 157 301 L 157 300 L 156 299 L 156 298 L 155 297 L 155 296 L 154 295 L 154 294 L 153 293 L 153 291 L 152 290 L 152 289 L 151 288 L 151 286 L 150 285 L 150 283 L 149 282 L 149 279 L 148 278 L 148 275 L 147 274 L 147 269 L 146 268 L 146 240 L 147 239 L 147 234 L 148 233 L 148 229 L 149 228 L 149 225 L 150 224 L 150 222 L 151 221 L 151 219 L 152 218 L 152 216 L 153 215 L 153 214 L 154 213 L 154 211 L 155 210 L 155 209 L 156 208 L 156 207 L 157 206 L 157 205 L 158 204 L 158 203 L 159 202 L 159 201 L 160 200 L 160 199 L 162 197 L 162 196 L 164 194 L 164 193 L 166 191 L 166 190 L 168 188 L 168 187 L 173 182 L 173 181 L 185 169 L 186 169 L 189 166 L 190 166 L 193 163 L 194 163 L 196 161 L 197 161 L 199 159 L 200 159 L 201 158 L 202 158 L 203 157 L 204 157 L 205 156 L 206 156 L 207 155 L 208 155 L 209 154 L 210 154 L 211 153 L 213 153 L 214 152 L 215 152 L 216 151 L 218 151 L 219 150 L 221 150 L 222 149 L 224 149 L 225 148 L 227 148 L 228 147 L 232 147 L 233 146 L 237 146 L 238 145 L 243 145 L 244 144 L 267 144 L 268 145 L 274 145 L 275 146 L 279 146 L 280 147 L 283 147 L 284 148 L 287 148 L 288 149 L 289 149 L 290 150 L 292 150 L 293 151 L 295 151 L 296 152 L 297 152 L 298 151 L 299 151 L 300 150 L 301 150 L 302 149 L 303 149 L 304 148 L 306 148 L 307 147 L 308 147 L 309 146 L 310 146 L 311 145 L 312 145 L 313 144 L 314 144 L 315 143 L 317 143 L 318 142 L 319 142 L 320 141 L 321 141 L 322 140 L 323 140 L 324 139 L 325 139 L 326 138 L 327 138 L 328 137 L 329 137 L 330 136 L 331 136 L 332 135 L 334 135 L 335 134 L 336 134 L 337 133 L 338 133 L 339 132 L 338 131 L 337 131 L 335 129 L 334 129 L 332 127 L 331 127 L 329 125 L 328 125 L 327 124 L 326 124 L 325 123 L 324 123 L 323 122 L 322 122 L 321 121 L 320 121 L 319 120 L 318 120 L 317 119 L 316 119 L 315 118 L 313 118 L 312 117 L 310 117 L 309 116 L 308 116 L 307 115 L 305 115 L 304 114 L 302 114 L 301 113 L 299 113 L 298 112 L 296 112 L 295 111 L 292 111 L 291 110 L 288 110 L 287 109 L 284 109 L 283 108 L 278 108 L 277 107 L 269 107 L 268 106 Z" />
    <path d="M 442 66 L 281 227 L 281 228 L 280 229 L 279 229 L 269 239 L 269 240 L 268 241 L 267 241 L 265 243 L 265 244 L 264 245 L 263 245 L 257 251 L 257 252 L 256 253 L 255 253 L 255 254 L 254 255 L 253 255 L 253 256 L 248 261 L 247 261 L 247 262 L 211 298 L 214 295 L 215 295 L 218 292 L 219 292 L 222 289 L 223 289 L 226 286 L 227 286 L 229 284 L 230 284 L 234 280 L 235 280 L 237 278 L 238 278 L 241 275 L 242 275 L 245 272 L 246 272 L 248 270 L 249 270 L 252 267 L 253 267 L 256 264 L 257 264 L 260 261 L 261 261 L 264 258 L 265 258 L 268 255 L 269 255 L 272 252 L 273 252 L 275 250 L 276 250 L 279 247 L 280 247 L 283 244 L 284 244 L 287 241 L 288 241 L 290 239 L 291 239 L 295 235 L 296 235 L 298 233 L 299 233 L 302 230 L 303 230 L 306 227 L 307 227 L 310 224 L 311 224 L 313 222 L 314 222 L 317 219 L 318 219 L 321 216 L 322 216 L 325 213 L 326 213 L 329 210 L 330 210 L 333 207 L 334 207 L 336 205 L 337 205 L 338 204 L 339 204 L 340 203 L 346 203 L 347 204 L 349 204 L 355 210 L 355 211 L 356 212 L 356 214 L 357 215 L 357 217 L 358 218 L 358 220 L 359 221 L 359 223 L 360 224 L 360 227 L 361 228 L 361 232 L 362 233 L 362 239 L 363 240 L 363 265 L 362 266 L 362 272 L 361 273 L 361 276 L 360 277 L 360 280 L 359 281 L 359 284 L 358 285 L 358 287 L 357 288 L 357 289 L 356 290 L 356 292 L 355 293 L 355 294 L 354 295 L 354 297 L 353 298 L 353 299 L 352 300 L 352 301 L 351 302 L 351 303 L 350 304 L 350 305 L 348 307 L 348 308 L 347 309 L 347 310 L 345 312 L 345 313 L 343 315 L 343 316 L 339 320 L 339 321 L 323 337 L 322 337 L 319 340 L 318 340 L 315 343 L 314 343 L 313 344 L 312 344 L 310 346 L 309 346 L 307 348 L 306 348 L 305 349 L 304 349 L 303 350 L 302 350 L 301 351 L 299 351 L 298 352 L 297 352 L 296 353 L 294 353 L 293 354 L 292 354 L 291 355 L 289 355 L 288 356 L 286 356 L 285 357 L 282 357 L 281 358 L 277 358 L 276 359 L 271 359 L 270 360 L 243 360 L 242 359 L 236 359 L 235 358 L 232 358 L 231 357 L 228 357 L 227 356 L 224 356 L 223 355 L 221 355 L 220 354 L 218 354 L 217 353 L 215 353 L 214 352 L 213 353 L 211 353 L 210 354 L 209 354 L 208 355 L 207 355 L 206 356 L 205 356 L 204 357 L 203 357 L 202 358 L 201 358 L 200 359 L 199 359 L 198 360 L 196 360 L 195 361 L 194 361 L 193 362 L 192 362 L 191 363 L 190 363 L 189 364 L 188 364 L 187 365 L 186 365 L 185 366 L 183 366 L 182 367 L 181 367 L 180 368 L 179 368 L 178 369 L 177 369 L 176 370 L 175 370 L 174 371 L 172 371 L 171 372 L 173 374 L 174 374 L 176 376 L 177 376 L 178 377 L 179 377 L 180 378 L 181 378 L 182 379 L 183 379 L 185 381 L 186 381 L 187 382 L 188 382 L 189 383 L 190 383 L 191 384 L 193 384 L 194 385 L 195 385 L 196 386 L 197 386 L 198 387 L 199 387 L 200 388 L 202 388 L 203 389 L 205 389 L 206 390 L 207 390 L 208 391 L 210 391 L 211 392 L 213 392 L 214 393 L 217 393 L 218 394 L 221 394 L 222 395 L 226 395 L 227 396 L 231 396 L 232 397 L 238 397 L 239 398 L 250 398 L 251 399 L 254 399 L 255 398 L 272 398 L 273 397 L 279 397 L 280 396 L 285 396 L 286 395 L 289 395 L 290 394 L 293 394 L 294 393 L 297 393 L 298 392 L 300 392 L 301 391 L 303 391 L 304 390 L 305 390 L 306 389 L 308 389 L 309 388 L 311 388 L 312 387 L 313 387 L 314 386 L 315 386 L 316 385 L 317 385 L 318 384 L 319 384 L 320 383 L 321 383 L 322 382 L 323 382 L 324 381 L 325 381 L 326 380 L 327 380 L 328 379 L 329 379 L 331 377 L 332 377 L 333 376 L 334 376 L 336 374 L 337 374 L 339 372 L 340 372 L 343 369 L 344 369 L 348 365 L 349 365 L 367 347 L 367 346 L 371 342 L 371 341 L 374 338 L 374 337 L 377 334 L 377 333 L 379 331 L 379 330 L 380 329 L 380 328 L 382 326 L 382 325 L 383 324 L 383 323 L 384 322 L 384 321 L 385 320 L 385 319 L 386 318 L 386 317 L 387 316 L 387 315 L 388 314 L 388 313 L 389 312 L 389 311 L 390 310 L 390 308 L 391 307 L 391 306 L 392 305 L 392 303 L 393 302 L 393 301 L 394 300 L 394 298 L 395 297 L 395 294 L 396 293 L 396 291 L 397 290 L 397 287 L 398 286 L 398 282 L 399 281 L 399 276 L 400 275 L 400 270 L 401 269 L 401 237 L 400 236 L 400 229 L 399 228 L 399 224 L 398 223 L 398 219 L 397 218 L 397 215 L 396 214 L 396 210 L 395 209 L 395 204 L 394 203 L 394 198 L 393 197 L 393 190 L 392 189 L 392 164 L 393 163 L 393 157 L 394 156 L 394 152 L 395 151 L 395 148 L 396 147 L 396 144 L 397 143 L 397 140 L 398 139 L 398 138 L 399 137 L 399 135 L 400 134 L 400 133 L 401 132 L 401 130 L 402 129 L 402 128 L 403 127 L 403 126 L 404 125 L 404 124 L 405 123 L 405 122 L 406 121 L 406 120 L 407 119 L 407 118 L 408 117 L 408 116 L 409 115 L 409 114 L 410 113 L 410 112 L 412 110 L 412 109 L 413 108 L 413 107 L 415 105 L 415 104 L 417 102 L 417 101 L 419 99 L 419 98 L 421 96 L 421 95 L 422 94 L 422 93 L 425 90 L 425 89 L 427 87 L 427 86 L 430 83 L 430 82 L 432 80 L 432 79 L 435 76 L 435 75 L 437 73 L 437 72 L 440 69 L 440 68 Z" />
  </g>
</svg>